<svg width="76" height="76" viewBox="0 0 76 76" fill="none" xmlns="http://www.w3.org/2000/svg">
<path d="M38 0C27.9594 0.121137 18.3642 4.16359 11.2639 11.2639C4.16359 18.3642 0.121137 27.9594 0 38C0.121137 48.0406 4.16359 57.6358 11.2639 64.7361C18.3642 71.8364 27.9594 75.8789 38 76C48.0406 75.8789 57.6358 71.8364 64.7361 64.7361C71.8364 57.6358 75.8789 48.0406 76 38C75.8789 27.9594 71.8364 18.3642 64.7361 11.2639C57.6358 4.16359 48.0406 0.121137 38 0ZM59.7143 40.7143H40.7143V59.7143H35.2857V40.7143H16.2857V35.2857H35.2857V16.2857H40.7143V35.2857H59.7143V40.7143Z" fill="#047B38"/>
</svg>
