<svg width="37" height="37" viewBox="0 0 37 37" fill="none" xmlns="http://www.w3.org/2000/svg">
<circle cx="18.5" cy="18.5" r="18.5" fill="#008D40"/>
<path d="M23.474 13.4078L25.592 15.5248M24.836 11.5428L19.109 17.2698C18.8131 17.5653 18.6113 17.9418 18.529 18.3518L18 20.9998L20.648 20.4698C21.058 20.3878 21.434 20.1868 21.73 19.8908L27.457 14.1638C27.6291 13.9917 27.7656 13.7874 27.8588 13.5626C27.9519 13.3377 27.9998 13.0967 27.9998 12.8533C27.9998 12.6099 27.9519 12.3689 27.8588 12.1441C27.7656 11.9192 27.6291 11.7149 27.457 11.5428C27.2849 11.3707 27.0806 11.2342 26.8557 11.1411C26.6309 11.0479 26.3899 11 26.1465 11C25.9031 11 25.6621 11.0479 25.4373 11.1411C25.2124 11.2342 25.0081 11.3707 24.836 11.5428V11.5428Z" stroke="white" stroke-width="2" stroke-linecap="round" stroke-linejoin="round"/>
<path d="M26 23V26C26 26.5304 25.7893 27.0391 25.4142 27.4142C25.0391 27.7893 24.5304 28 24 28H13C12.4696 28 11.9609 27.7893 11.5858 27.4142C11.2107 27.0391 11 26.5304 11 26V15C11 14.4696 11.2107 13.9609 11.5858 13.5858C11.9609 13.2107 12.4696 13 13 13H16" stroke="white" stroke-width="2" stroke-linecap="round" stroke-linejoin="round"/>
</svg>
